<?xml version="1.0" encoding="iso-8859-1"?>
<!-- Generator: Adobe Illustrator 19.1.0, SVG Export Plug-In . SVG Version: 6.00 Build 0)  -->
<svg version="1.1" id="Capa_1" xmlns="http://www.w3.org/2000/svg" xmlns:xlink="http://www.w3.org/1999/xlink" x="0px" y="0px"
	 viewBox="0 0 60.434 60.434" style="enable-background:new 0 0 60.434 60.434;" xml:space="preserve">
<g>
	<path style="fill:#FFDD00;" d="M40.786,32.082c-0.085,2.168-1.857,3.903-4.046,3.903s-3.961-1.735-4.046-3.903H18.813l1.828,24.223
		c0.097,1.286,1.169,2.28,2.458,2.28h19.157c1.29,0,2.361-0.994,2.458-2.28l1.828-24.223H40.786z"/>
	<path style="fill:#231F20;" d="M14.12,59.612c-4.631,0-8.398-3.767-8.398-8.398c0-3.323,1.965-6.28,4.921-7.622V18.285
		c0-5.151,4.011-9.382,9.074-9.735C21.942,3.384,27.011,0,32.729,0c5.719,0,10.791,3.388,13.014,8.558
		c5.013,0.404,8.968,4.612,8.968,9.727c0,4.417-2.985,8.291-7.26,9.421c-0.154,0.041-0.313,0.061-0.473,0.061h-4.328v4.155
		c0,3.259-2.652,5.911-5.911,5.911c-3.26,0-5.912-2.652-5.912-5.911v-4.155H20.341l1.894,25.077c0.016,0.214-0.006,0.43-0.064,0.636
		C21.163,57.091,17.851,59.612,14.12,59.612z M20.402,12.224c-3.342,0-6.061,2.719-6.061,6.061v26.609
		c0,0.844-0.571,1.581-1.388,1.791c-2.08,0.536-3.533,2.399-3.533,4.53c0,2.591,2.108,4.7,4.7,4.7c1.98,0,3.749-1.278,4.4-3.143
		l-2.016-26.714c-0.038-0.513,0.138-1.019,0.489-1.396c0.349-0.377,0.842-0.592,1.356-0.592h14.33c1.021,0,1.849,0.828,1.849,1.849
		v6.004c0,1.221,0.993,2.213,2.214,2.213c1.219,0,2.213-0.993,2.213-2.213v-6.004c0-1.021,0.828-1.849,1.849-1.849h5.92
		c2.538-0.772,4.292-3.119,4.292-5.785c0-3.342-2.719-6.061-6.061-6.061c-0.085,0-0.169,0.007-0.253,0.013
		c-0.004,0.001-0.119,0.008-0.123,0.008c-0.826,0.052-1.617-0.474-1.875-1.279c-1.399-4.347-5.406-7.268-9.972-7.268
		c-4.568,0-8.577,2.923-9.975,7.272c-0.261,0.816-1.067,1.337-1.901,1.278C20.703,12.237,20.554,12.224,20.402,12.224z"/>
	<path style="fill:#231F20;" d="M42.256,60.434H23.099c-2.243,0-4.133-1.752-4.302-3.989l-2.293-30.387
		c-0.038-0.513,0.138-1.019,0.489-1.396c0.349-0.377,0.842-0.592,1.356-0.592h14.33c1.021,0,1.849,0.828,1.849,1.849v6.004
		c0,1.221,0.993,2.213,2.214,2.213c1.219,0,2.213-0.993,2.213-2.213v-6.004c0-1.021,0.828-1.849,1.849-1.849h6.177
		c0.514,0,1.021,0.214,1.37,0.592c0.35,0.377,0.542,0.884,0.503,1.396l-2.293,30.386C46.389,58.682,44.499,60.434,42.256,60.434z
		 M20.341,27.767l2.144,28.398c0.024,0.319,0.294,0.57,0.614,0.57h19.157c0.32,0,0.59-0.251,0.614-0.571l2.144-28.398h-2.363v4.155
		c0,3.259-2.652,5.911-5.911,5.911c-3.26,0-5.912-2.652-5.912-5.911v-4.155H20.341z"/>
	<path style="fill:#231F20;" d="M39.8,54.424H25.547c-0.341,0-0.616-0.276-0.616-0.616c0-0.341,0.276-0.616,0.616-0.616H39.8
		c0.341,0,0.616,0.276,0.616,0.616C40.417,54.149,40.141,54.424,39.8,54.424z"/>
	<path style="fill:#231F20;" d="M32.376,32.699h-1.233c-0.344,0-0.628-0.284-0.628-0.616c0-0.345,0.284-0.616,0.628-0.616h1.233
		c0.333,0,0.616,0.271,0.616,0.616C32.993,32.416,32.71,32.699,32.376,32.699z M28.678,32.699c-0.344,0-0.616-0.284-0.616-0.616
		c0-0.345,0.272-0.616,0.616-0.616c0.333,0,0.604,0.271,0.604,0.616C29.283,32.416,29.012,32.699,28.678,32.699z M26.213,32.699
		H24.98c-0.344,0-0.616-0.284-0.616-0.616c0-0.345,0.272-0.616,0.616-0.616h1.233c0.334,0,0.604,0.271,0.604,0.616
		C26.817,32.416,26.546,32.699,26.213,32.699z M22.515,32.699c-0.344,0-0.616-0.284-0.616-0.616c0-0.345,0.272-0.616,0.616-0.616
		c0.333,0,0.616,0.271,0.616,0.616C23.131,32.416,22.848,32.699,22.515,32.699z M20.05,32.699h-1.233
		c-0.344,0-0.616-0.284-0.616-0.616c0-0.345,0.272-0.616,0.616-0.616h1.233c0.333,0,0.616,0.271,0.616,0.616
		C20.666,32.416,20.383,32.699,20.05,32.699z"/>
	<path style="fill:#231F20;" d="M44.482,32.699c-0.346,0-0.616-0.272-0.616-0.616c0-0.345,0.271-0.616,0.616-0.616
		s0.616,0.271,0.616,0.616C45.098,32.428,44.827,32.699,44.482,32.699z M42.016,32.699h-1.233c-0.332,0-0.616-0.272-0.616-0.616
		c0-0.345,0.284-0.616,0.616-0.616h1.233c0.345,0,0.616,0.271,0.616,0.616C42.633,32.428,42.362,32.699,42.016,32.699z"/>
</g>
<g>
</g>
<g>
</g>
<g>
</g>
<g>
</g>
<g>
</g>
<g>
</g>
<g>
</g>
<g>
</g>
<g>
</g>
<g>
</g>
<g>
</g>
<g>
</g>
<g>
</g>
<g>
</g>
<g>
</g>
</svg>
